<svg xmlns="http://www.w3.org/2000/svg" xmlns:xlink="http://www.w3.org/1999/xlink" width="157" height="35" viewBox="0 0 157 35">
  <defs>
    <clipPath id="clip-path">
      <rect id="사각형_277" data-name="사각형 277" width="157" height="35" fill="none"/>
    </clipPath>
  </defs>
  <g id="logo" transform="translate(0 0)">
    <g id="그룹_129" data-name="그룹 129" transform="translate(0 0)" clip-path="url(#clip-path)">
      <path id="패스_25" data-name="패스 25" d="M11.581,11.483a10.186,10.186,0,0,1,.746-3.944,9.206,9.206,0,0,1,5.144-5.111,10.142,10.142,0,0,1,3.84-.721,9.3,9.3,0,0,1,4.778,1.178A11.652,11.652,0,0,1,29.7,6.372L26.647,9.057a7.082,7.082,0,0,0-2.088-2.45,5.21,5.21,0,0,0-3.137-.91A4.987,4.987,0,0,0,19.3,6.14a4.822,4.822,0,0,0-1.641,1.223A5.722,5.722,0,0,0,16.6,9.208a6.636,6.636,0,0,0-.38,2.274,6.8,6.8,0,0,0,.366,2.264,5.408,5.408,0,0,0,1.063,1.831A4.9,4.9,0,0,0,19.314,16.8a5.083,5.083,0,0,0,2.155.446,5.985,5.985,0,0,0,1.728-.236,4.908,4.908,0,0,0,1.405-.675,5.852,5.852,0,0,0,1.16-1.076,9.183,9.183,0,0,0,.972-1.424l2.992,2.777a11.461,11.461,0,0,1-3.537,3.431,9.312,9.312,0,0,1-4.878,1.213,10.142,10.142,0,0,1-3.84-.721,9.206,9.206,0,0,1-5.144-5.111,10.186,10.186,0,0,1-.746-3.944" transform="translate(27.356 4.292)" fill="#003b8a"/>
      <path id="패스_26" data-name="패스 26" d="M17.124,10.654a7.763,7.763,0,0,1,.635-3.2,7.254,7.254,0,0,1,1.718-2.415A7.479,7.479,0,0,1,22,3.526,8.866,8.866,0,0,1,25.069,3a9.028,9.028,0,0,1,3.1.524,7.443,7.443,0,0,1,2.522,1.5,7.077,7.077,0,0,1,1.695,2.4,7.866,7.866,0,0,1,.625,3.2,7.737,7.737,0,0,1-.625,3.164,7.238,7.238,0,0,1-1.695,2.4,7.419,7.419,0,0,1-2.522,1.519,9.112,9.112,0,0,1-3.1.524A8.949,8.949,0,0,1,22,17.713a7.688,7.688,0,0,1-2.521-1.5,7.166,7.166,0,0,1-1.718-2.394,7.615,7.615,0,0,1-.635-3.16m7.945,3.592a3.365,3.365,0,0,0,1.385-.281A3.122,3.122,0,0,0,27.5,13.21a3.406,3.406,0,0,0,.656-1.132,4.145,4.145,0,0,0,.235-1.424A4.307,4.307,0,0,0,28.159,9.2,3.524,3.524,0,0,0,27.5,8.039a2.858,2.858,0,0,0-1.049-.756,3.479,3.479,0,0,0-1.385-.271,3.333,3.333,0,0,0-1.4.281,3.079,3.079,0,0,0-1.049.77,3.276,3.276,0,0,0-.659,1.156,4.5,4.5,0,0,0-.222,1.434,4.4,4.4,0,0,0,.222,1.424,3.128,3.128,0,0,0,1.708,1.888,3.333,3.333,0,0,0,1.4.281" transform="translate(40.45 7.549)" fill="#003b8a"/>
      <path id="패스_27" data-name="패스 27" d="M26.566,4.515a6.533,6.533,0,0,1,.871-.594,6.662,6.662,0,0,1,.972-.457,7.167,7.167,0,0,1,1-.292,4.644,4.644,0,0,1,.948-.105,7.226,7.226,0,0,1,2.478.411,5.954,5.954,0,0,1,1.977,1.153,5.31,5.31,0,0,1,1.3,1.775,5.37,5.37,0,0,1,.467,2.264v8.7h-4.64V10.161a4.6,4.6,0,0,0-.2-1.459,2.682,2.682,0,0,0-.535-.956,1.935,1.935,0,0,0-.77-.513,2.749,2.749,0,0,0-.884-.151,2.517,2.517,0,0,0-1.728.643,3.008,3.008,0,0,0-.948,1.691v7.958H22.235V3.535h3.974Z" transform="translate(52.523 7.713)" fill="#003b8a"/>
      <path id="패스_28" data-name="패스 28" d="M33.882,6.605h3.036V10.62H33.882v4.573a1.266,1.266,0,0,0,.313.9,1.117,1.117,0,0,0,.871.341H37.14v4.011H33.347a4.216,4.216,0,0,1-1.587-.292,4.091,4.091,0,0,1-1.3-.826,3.806,3.806,0,0,1-.891-1.3,4.275,4.275,0,0,1-.326-1.715V10.62H26.828V6.605h2.411V1.846h4.643Z" transform="translate(63.372 4.642)" fill="#003b8a"/>
      <path id="패스_29" data-name="패스 29" d="M30.088,10.654a7.758,7.758,0,0,1,.636-3.2,7.239,7.239,0,0,1,1.718-2.415,7.481,7.481,0,0,1,2.522-1.515A8.863,8.863,0,0,1,38.033,3a9.027,9.027,0,0,1,3.1.524,7.439,7.439,0,0,1,2.522,1.5,7.077,7.077,0,0,1,1.694,2.4,7.861,7.861,0,0,1,.626,3.2,7.732,7.732,0,0,1-.626,3.164,7.237,7.237,0,0,1-1.694,2.4,7.416,7.416,0,0,1-2.522,1.519,9.112,9.112,0,0,1-3.1.524,8.946,8.946,0,0,1-3.07-.524,7.69,7.69,0,0,1-2.522-1.5,7.152,7.152,0,0,1-1.718-2.394,7.61,7.61,0,0,1-.636-3.16m7.945,3.592a3.364,3.364,0,0,0,1.385-.281,3.121,3.121,0,0,0,1.049-.756,3.406,3.406,0,0,0,.656-1.132,4.145,4.145,0,0,0,.235-1.424A4.307,4.307,0,0,0,41.123,9.2a3.524,3.524,0,0,0-.656-1.156,2.858,2.858,0,0,0-1.049-.756,3.478,3.478,0,0,0-1.385-.271,3.337,3.337,0,0,0-1.4.281,3.088,3.088,0,0,0-1.049.77,3.291,3.291,0,0,0-.659,1.156,4.5,4.5,0,0,0-.222,1.434,4.4,4.4,0,0,0,.222,1.424,3.127,3.127,0,0,0,1.708,1.888,3.337,3.337,0,0,0,1.4.281" transform="translate(71.073 7.549)" fill="#003b8a"/>
      <path id="패스_30" data-name="패스 30" d="M39.08,3.536l.38.977a6.9,6.9,0,0,1,2.111-1.1,8.224,8.224,0,0,1,2.441-.348,6.929,6.929,0,0,1,2.757.548A6.758,6.758,0,0,1,49,5.145,7.185,7.185,0,0,1,50.5,7.49a8.011,8.011,0,0,1,.545,3,8.113,8.113,0,0,1-.511,2.918,6.909,6.909,0,0,1-1.452,2.309,6.749,6.749,0,0,1-2.233,1.54,7.441,7.441,0,0,1-2.854.584,6.958,6.958,0,0,1-2.232-.316,6.71,6.71,0,0,1-1.987-1.016V25.8h-4.64V3.536ZM43.3,13.824a2.884,2.884,0,0,0,2.253-.935,3.412,3.412,0,0,0,.85-2.4,3.491,3.491,0,0,0-.85-2.464,3.215,3.215,0,0,0-4.505,0,3.488,3.488,0,0,0-.852,2.464,3.41,3.41,0,0,0,.852,2.4,2.882,2.882,0,0,0,2.253.935" transform="translate(82.99 7.715)" fill="#003b8a"/>
      <path id="패스_31" data-name="패스 31" d="M44.9,5.674H40.257V1.66H44.9Zm0,15.235H40.257V7.073H44.9Z" transform="translate(95.094 4.174)" fill="#003b8a"/>
      <path id="패스_32" data-name="패스 32" d="M53.926,3.536h3.951V17.371H53.9l-.356-1.121a6.183,6.183,0,0,1-2.111,1.213,7.046,7.046,0,0,1-2.421.376,7.431,7.431,0,0,1-2.854-.584,6.743,6.743,0,0,1-2.232-1.54,6.9,6.9,0,0,1-1.453-2.309,8.045,8.045,0,0,1-.511-2.918,8.011,8.011,0,0,1,.545-3A7.187,7.187,0,0,1,44,5.145a6.755,6.755,0,0,1,2.232-1.529,6.94,6.94,0,0,1,2.757-.548,8.285,8.285,0,0,1,2.431.348,6.581,6.581,0,0,1,2.1,1.1ZM49.706,13.824a2.883,2.883,0,0,0,2.253-.935,3.409,3.409,0,0,0,.85-2.4,3.488,3.488,0,0,0-.85-2.464,3.215,3.215,0,0,0-4.505,0,3.488,3.488,0,0,0-.851,2.464,3.41,3.41,0,0,0,.851,2.4,2.883,2.883,0,0,0,2.253.935" transform="translate(99.124 7.715)" fill="#003b8a"/>
      <path id="패스_33" data-name="패스 33" d="M14.006,12.722a1.77,1.77,0,0,1-1.614-.995,2.6,2.6,0,0,1-.252-1.2,2.561,2.561,0,0,1,.259-1.2,1.924,1.924,0,0,1,.689-.763,1.788,1.788,0,0,1,.945-.264,1.44,1.44,0,0,1,.7.162,1.739,1.739,0,0,1,.5.387l-.43.541a1.306,1.306,0,0,0-.336-.26.84.84,0,0,0-.413-.1.942.942,0,0,0-.77.39A1.713,1.713,0,0,0,12.97,10.5a1.819,1.819,0,0,0,.289,1.09.908.908,0,0,0,.773.394.982.982,0,0,0,.467-.112,1.376,1.376,0,0,0,.376-.306l.431.527a1.6,1.6,0,0,1-1.3.629" transform="translate(28.677 20.874)" fill="#003b8a"/>
      <path id="패스_34" data-name="패스 34" d="M15.882,12.722a1.64,1.64,0,0,1-1.315-.6,2.43,2.43,0,0,1-.508-1.631,2.369,2.369,0,0,1,.508-1.62,1.795,1.795,0,0,1,2.632,0,2.383,2.383,0,0,1,.5,1.617,2.447,2.447,0,0,1-.5,1.631,1.652,1.652,0,0,1-1.318.6m0-.738a.829.829,0,0,0,.723-.4,1.949,1.949,0,0,0,.269-1.086,1.881,1.881,0,0,0-.269-1.076.869.869,0,0,0-1.446,0,1.881,1.881,0,0,0-.269,1.076,1.949,1.949,0,0,0,.269,1.086.837.837,0,0,0,.723.4" transform="translate(33.212 20.874)" fill="#003b8a"/>
      <path id="패스_35" data-name="패스 35" d="M16.289,12.583V8.323h.83l1.187,2.267.407.921h.027l-.01-.1c-.024-.218-.044-.45-.064-.692s-.031-.475-.031-.7v-1.7h.77v4.26h-.827L17.4,10.3l-.413-.914h-.027c.007.1.017.2.027.306a10.132,10.132,0,0,1,.071,1.178v1.712Z" transform="translate(38.477 20.932)" fill="#003b8a"/>
      <path id="패스_36" data-name="패스 36" d="M19.47,12.583V9.03H18.324V8.323H21.44V9.03H20.284v3.554Z" transform="translate(43.284 20.932)" fill="#003b8a"/>
      <path id="패스_37" data-name="패스 37" d="M20.355,12.583V8.323h2.5V9.03H21.169v.984H22.6v.714H21.169V11.87h1.748v.714Z" transform="translate(48.083 20.932)" fill="#003b8a"/>
      <path id="패스_38" data-name="패스 38" d="M22.27,12.583V8.323h.83l1.187,2.267.407.921h.027l-.01-.1c-.024-.218-.044-.45-.064-.692s-.03-.475-.03-.7v-1.7h.77v4.26H24.56L23.383,10.3l-.413-.914h-.027c.007.1.017.2.027.306a10.132,10.132,0,0,1,.071,1.178v1.712Z" transform="translate(52.606 20.932)" fill="#003b8a"/>
      <path id="패스_39" data-name="패스 39" d="M25.451,12.583V9.03H24.3V8.323h3.117V9.03H26.265v3.554Z" transform="translate(57.412 20.932)" fill="#003b8a"/>
      <path id="패스_40" data-name="패스 40" d="M27.688,12.722a2.032,2.032,0,0,1-.8-.162,2.09,2.09,0,0,1-.689-.46l.467-.587a1.5,1.5,0,0,0,1.036.471.767.767,0,0,0,.484-.13.432.432,0,0,0,.165-.359.381.381,0,0,0-.158-.341,1.935,1.935,0,0,0-.414-.218l-.04-.018-.545-.243a1.54,1.54,0,0,1-.4-.236,1.213,1.213,0,0,1-.31-.373,1.2,1.2,0,0,1,.276-1.413A1.469,1.469,0,0,1,27.782,8.3a1.765,1.765,0,0,1,1.278.548l-.413.534a1.6,1.6,0,0,0-.4-.26,1.149,1.149,0,0,0-.461-.091.694.694,0,0,0-.43.12.417.417,0,0,0,.013.664,2.163,2.163,0,0,0,.427.207l.04.018.531.236a1.477,1.477,0,0,1,.6.425,1.12,1.12,0,0,1,.225.731,1.2,1.2,0,0,1-.181.64,1.287,1.287,0,0,1-.511.471,1.682,1.682,0,0,1-.807.179" transform="translate(61.894 20.874)" fill="#003b8a"/>
      <path id="패스_41" data-name="패스 41" d="M29.491,12.583V8.323H30.3V11.87h1.654v.714Z" transform="translate(69.663 20.932)" fill="#003b8a"/>
      <path id="패스_42" data-name="패스 42" d="M33.9,12.586l-.286-1.1H32.293L32,12.586H31.18l1.3-4.264h.958l1.311,4.264Zm-1.432-1.758h.968l-.121-.468c-.077-.271-.151-.552-.218-.84-.044-.186-.091-.373-.138-.552h-.024c-.1.475-.222.939-.346,1.392Z" transform="translate(73.652 20.93)" fill="#003b8a"/>
      <path id="패스_43" data-name="패스 43" d="M33.294,12.583V8.323h1.349a2.771,2.771,0,0,1,.753.095,1.036,1.036,0,0,1,.527.323.936.936,0,0,1,.2.629,1.134,1.134,0,0,1-.148.555.787.787,0,0,1-.41.366v.028a.95.95,0,0,1,.767,1.009,1.154,1.154,0,0,1-.208.7,1.239,1.239,0,0,1-.565.415,2.215,2.215,0,0,1-.807.137Zm.814-2.527h.474A.862.862,0,0,0,35.15,9.9a.5.5,0,0,0,.175-.4.449.449,0,0,0-.181-.4,1.009,1.009,0,0,0-.552-.12h-.484Zm0,1.87h.569a1.088,1.088,0,0,0,.638-.158.57.57,0,0,0,.219-.492.492.492,0,0,0-.215-.45,1.227,1.227,0,0,0-.642-.137h-.569Z" transform="translate(78.646 20.932)" fill="#003b8a"/>
      <path id="패스_44" data-name="패스 44" d="M5.743,9.181a4.446,4.446,0,0,1,3.1-3.241A4.451,4.451,0,0,1,5.743,2.7a4.451,4.451,0,0,1-3.1,3.244,4.446,4.446,0,0,1,3.1,3.241" transform="translate(6.243 6.78)" fill="#003b8a"/>
      <path id="패스_45" data-name="패스 45" d="M7.9,9.387a.769.769,0,0,0-.4-.207.8.8,0,0,0-.44.053.82.82,0,0,0-.528.7,1.208,1.208,0,0,0,.081.531,1.155,1.155,0,0,0,.279.45.775.775,0,0,0,.4.2.817.817,0,0,0,.444-.053.837.837,0,0,0,.36-.271.851.851,0,0,0,.165-.429,1.167,1.167,0,0,0-.081-.531A1.117,1.117,0,0,0,7.9,9.387M7.85,10.6a.486.486,0,0,1-.222.172.462.462,0,0,1-.272.028.491.491,0,0,1-.245-.148.826.826,0,0,1-.185-.316.944.944,0,0,1-.067-.366.541.541,0,0,1,.087-.281.486.486,0,0,1,.222-.172A.442.442,0,0,1,7.443,9.5a.486.486,0,0,1,.245.144,1,1,0,0,1,.185.316.948.948,0,0,1,.064.366.512.512,0,0,1-.087.281" transform="translate(15.43 23.06)" fill="#003b8a"/>
      <path id="패스_46" data-name="패스 46" d="M8.171,8.935l.639,1.121-.013.011L7.418,9.4l-.256.158L8.094,11.2l.283-.176L7.741,9.9,7.754,9.9l1.379.661.252-.158L8.45,8.759Z" transform="translate(16.919 22.029)" fill="#003b8a"/>
      <path id="패스_47" data-name="패스 47" d="M9.05,8.555l-.178-.221L7.756,9.3l.175.225.437-.38L9.356,10.4l.252-.218L8.616,8.931Z" transform="translate(18.321 20.96)" fill="#003b8a"/>
      <path id="패스_48" data-name="패스 48" d="M9.815,8.2a1.083,1.083,0,0,0-.447-.264.779.779,0,0,0-.44.011.849.849,0,0,0-.37.26.877.877,0,0,0-.2.418.827.827,0,0,0,.047.457,1.169,1.169,0,0,0,.306.432,1.091,1.091,0,0,0,.447.26A.723.723,0,0,0,9.6,9.76a.813.813,0,0,0,.37-.26.893.893,0,0,0,.2-.415.841.841,0,0,0-.047-.46,1.085,1.085,0,0,0-.3-.429M9.745,9.3a.457.457,0,0,1-.232.155A.435.435,0,0,1,9.23,9.44a.8.8,0,0,1-.3-.19.862.862,0,0,1-.222-.292.53.53,0,0,1-.047-.292.512.512,0,0,1,.121-.26.481.481,0,0,1,.232-.155.436.436,0,0,1,.282.011.9.9,0,0,1,.3.19.945.945,0,0,1,.222.292.532.532,0,0,1,.044.292.47.47,0,0,1-.118.26" transform="translate(19.708 19.882)" fill="#003b8a"/>
      <path id="패스_49" data-name="패스 49" d="M10.118,8.342a.822.822,0,0,0,.124-.355.575.575,0,0,0-.064-.313.66.66,0,0,0-.225-.243.611.611,0,0,0-.3-.109.507.507,0,0,0-.3.074.75.75,0,0,0-.252.267l-.367.6,1.546,1.019L10.454,9,9.93,8.652ZM9.3,7.861a.477.477,0,0,1,.141-.155.279.279,0,0,1,.161-.042.413.413,0,0,1,.168.063.4.4,0,0,1,.128.134.283.283,0,0,1,.034.169.426.426,0,0,1-.071.2L9.7,8.5,9.14,8.131Z" transform="translate(20.629 18.414)" fill="#003b8a"/>
      <path id="패스_52" data-name="패스 52" d="M0,0,.34-.006.308,1.835l-.34.006Z" transform="matrix(0.431, -0.902, 0.902, 0.431, 30.477, 24.672)" fill="#003b8a"/>
      <path id="패스_50" data-name="패스 50" d="M9.273,6.838,10.8,8.072l.111-.348-.38-.3.212-.682.477,0,.111-.348L9.4,6.434Zm.42-.088.773-.007-.158.506-.622-.485Z" transform="translate(21.904 16.076)" fill="#003b8a"/>
      <path id="패스_51" data-name="패스 51" d="M33.474,15.36a17.492,17.492,0,0,0-2.357-7.206A16.449,16.449,0,0,0,13.842.309,17.314,17.314,0,0,0,.319,14.886,14.287,14.287,0,0,0,.5,21.628a17.53,17.53,0,0,0,3.631,7.459,15.868,15.868,0,0,0,13.055,5.881A16.1,16.1,0,0,1,5.652,29.178a12.705,12.705,0,0,0,7.511,2.471c7.259,0,13.166-6.176,13.166-13.765S20.422,4.123,13.163,4.123A12.634,12.634,0,0,0,6.805,5.838a15.522,15.522,0,0,1,23.623,2.8,17.968,17.968,0,0,1,3.1,9.248,18.087,18.087,0,0,0-.05-2.524M22.106,10.38a7.686,7.686,0,0,0-4.922-1.171,8.519,8.519,0,0,1,5.988,3.54,8.158,8.158,0,0,1,1.146,2.331,12.415,12.415,0,0,1,.319,2.805c0,.432-.024.858-.064,1.28A8.045,8.045,0,0,1,22.456,23.4c-4.324,4.429-11.394,2.292-13.186-3.652a5.307,5.307,0,0,1-.158-.6,10.97,10.97,0,0,1-.225-1.255,8.851,8.851,0,0,0,.134,2.591,8.546,8.546,0,0,0,12.144,6,11.187,11.187,0,0,1-8,3.406,11.758,11.758,0,0,1-11.475-12,11.758,11.758,0,0,1,11.475-12,11.281,11.281,0,0,1,8.943,4.492" transform="translate(0 0)" fill="#003b8a"/>
    </g>
  </g>
</svg>
