<svg xmlns="http://www.w3.org/2000/svg" width="50" height="50" viewBox="0 0 50 50">
  <g id="blog" transform="translate(10232 4890)">
    <rect id="사각형_282" data-name="사각형 282" width="50" height="50" transform="translate(-10232 -4890)" fill="rgba(255,255,255,0)"/>
    <g id="blog-2" data-name="blog" transform="translate(-117.675 120.162)">
      <path id="패스_86" data-name="패스 86" d="M133.523,15.837a3.7,3.7,0,0,0-2.369,1.1v-4.42h-2.788V24.129h2.816v-.91a2.672,2.672,0,0,0,2.341,1.2,4.108,4.108,0,0,0,3.929-4.334s-.144-4.248-3.929-4.248m-.614,6.13a1.792,1.792,0,1,1,1.791-1.792,1.793,1.793,0,0,1-1.791,1.792" transform="translate(-10235.691 -5005.416)" fill="#fff"/>
      <path id="패스_87" data-name="패스 87" d="M135.734,12.322V15.01s1.272-.058,1.272,2.311V24.2h2.688V16.686s.115-4.364-3.96-4.364" transform="translate(-10233.077 -5005.483)" fill="#fff"/>
      <path id="패스_88" data-name="패스 88" d="M144.712,14.994s-4.6,0-4.6,4.3c0,0-.149,4.244,4.6,4.244,0,0,4.713-.007,4.713-4.244,0,0,.153-4.3-4.713-4.3m0,6.094A1.792,1.792,0,1,1,146.5,19.3a1.793,1.793,0,0,1-1.791,1.792" transform="translate(-10231.526 -5004.536)" fill="#fff"/>
      <path id="패스_89" data-name="패스 89" d="M154.307,15.276v.779a3.047,3.047,0,0,0-2.34-1.061s-3.944-.167-3.944,4.273c0,0-.045,4.135,3.835,4.135a3.186,3.186,0,0,0,2.448-1.062v.65s.2,2.037-1.777,2.037h-.671V27.5h1.082a4.048,4.048,0,0,0,4.074-4.355V15.276Zm-1.666,5.812a1.792,1.792,0,1,1,1.791-1.792,1.791,1.791,0,0,1-1.791,1.792" transform="translate(-10228.718 -5004.536)" fill="#fff"/>
    </g>
  </g>
</svg>
