<svg id="logo2" xmlns="http://www.w3.org/2000/svg" xmlns:xlink="http://www.w3.org/1999/xlink" width="157" height="35" viewBox="0 0 157 35">
  <defs>
    <clipPath id="clip-path">
      <rect id="사각형_278" data-name="사각형 278" width="157" height="35" fill="none"/>
    </clipPath>
  </defs>
  <g id="그룹_130" data-name="그룹 130" transform="translate(0 0)" clip-path="url(#clip-path)">
    <path id="패스_53" data-name="패스 53" d="M38.94,15.77a10.137,10.137,0,0,1,.75-3.941,9.329,9.329,0,0,1,2.05-3.091,9.46,9.46,0,0,1,3.09-2.021A10.165,10.165,0,0,1,48.67,6a9.331,9.331,0,0,1,4.78,1.18,11.692,11.692,0,0,1,3.62,3.491l-3.06,2.681A7.1,7.1,0,0,0,51.92,10.9a5.207,5.207,0,0,0-3.14-.91,5.089,5.089,0,0,0-2.12.44,4.858,4.858,0,0,0-1.64,1.22,5.581,5.581,0,0,0-1.06,1.841,6.736,6.736,0,0,0-.38,2.281,6.619,6.619,0,0,0,.37,2.261,5.534,5.534,0,0,0,1.06,1.831,4.843,4.843,0,0,0,1.67,1.22,5.087,5.087,0,0,0,2.16.44,6.139,6.139,0,0,0,1.73-.23,4.791,4.791,0,0,0,1.4-.68,6.144,6.144,0,0,0,1.16-1.07,9.167,9.167,0,0,0,.97-1.43l2.99,2.781a11.52,11.52,0,0,1-3.54,3.431,9.3,9.3,0,0,1-4.88,1.21,10.165,10.165,0,0,1-3.84-.72A9.176,9.176,0,0,1,39.69,19.7a10.137,10.137,0,0,1-.75-3.941Z" transform="translate(0 0.002)" fill="#fff"/>
    <path id="패스_54" data-name="패스 54" d="M57.57,18.2A7.848,7.848,0,0,1,58.2,15a7.024,7.024,0,0,1,1.72-2.411,7.3,7.3,0,0,1,2.52-1.51,8.875,8.875,0,0,1,3.07-.52,9.335,9.335,0,0,1,3.1.52,7.407,7.407,0,0,1,2.52,1.5,6.949,6.949,0,0,1,1.69,2.4,7.813,7.813,0,0,1,.62,3.2,7.751,7.751,0,0,1-.62,3.161,7.285,7.285,0,0,1-1.69,2.4,7.123,7.123,0,0,1-2.52,1.51,9.408,9.408,0,0,1-6.17,0,7.6,7.6,0,0,1-2.52-1.5A7.216,7.216,0,0,1,58.2,21.36,7.532,7.532,0,0,1,57.57,18.2Zm7.94,3.591a3.519,3.519,0,0,0,1.39-.28,3.022,3.022,0,0,0,1.05-.76,3.508,3.508,0,0,0,.66-1.13,4.129,4.129,0,0,0,.24-1.43,4.3,4.3,0,0,0-.24-1.46,3.771,3.771,0,0,0-.66-1.16,2.788,2.788,0,0,0-1.05-.76,3.48,3.48,0,0,0-1.39-.27,3.532,3.532,0,0,0-1.4.28,3.108,3.108,0,0,0-1.05.77,3.314,3.314,0,0,0-.66,1.16,4.44,4.44,0,0,0-.22,1.44,4.378,4.378,0,0,0,.22,1.43,3.181,3.181,0,0,0,.66,1.13,3.22,3.22,0,0,0,1.05.76A3.271,3.271,0,0,0,65.51,21.79Z" transform="translate(0 0.003)" fill="#fff"/>
    <path id="패스_55" data-name="패스 55" d="M79.09,12.227a5.782,5.782,0,0,1,.87-.59,6.63,6.63,0,0,1,.97-.46,7.665,7.665,0,0,1,1.01-.29,4.7,4.7,0,0,1,.95-.11,7.371,7.371,0,0,1,2.48.41,5.867,5.867,0,0,1,1.97,1.16,5.262,5.262,0,0,1,1.78,4.031v8.7H84.48V17.869a4.724,4.724,0,0,0-.2-1.46,2.54,2.54,0,0,0-.54-.96,1.826,1.826,0,0,0-.77-.51,2.712,2.712,0,0,0-.88-.15,2.552,2.552,0,0,0-1.73.64,3.061,3.061,0,0,0-.95,1.69v7.962H74.77V11.237h3.98l.36.98Z" transform="translate(0 0.003)" fill="#fff"/>
    <path id="패스_56" data-name="패스 56" d="M97.25,11.248h3.04V15.26H97.25v4.571a1.328,1.328,0,0,0,.31.9,1.116,1.116,0,0,0,.87.34h2.07v4.011H96.71a4.347,4.347,0,0,1-1.58-.29,4.1,4.1,0,0,1-1.31-.83,3.943,3.943,0,0,1-.9-1.29,4.242,4.242,0,0,1-.32-1.71V15.27H90.19V11.258H92.6V6.5h4.64v4.761Z" transform="translate(0 0.002)" fill="#fff"/>
    <path id="패스_57" data-name="패스 57" d="M101.16,18.2a7.848,7.848,0,0,1,.63-3.2,7.024,7.024,0,0,1,1.72-2.411,7.4,7.4,0,0,1,2.52-1.51,8.875,8.875,0,0,1,3.07-.52,9.335,9.335,0,0,1,3.1.52,7.407,7.407,0,0,1,2.52,1.5,6.949,6.949,0,0,1,1.69,2.4,7.813,7.813,0,0,1,.62,3.2,7.751,7.751,0,0,1-.62,3.161,7.285,7.285,0,0,1-1.69,2.4,7.123,7.123,0,0,1-2.52,1.51,9.408,9.408,0,0,1-6.17,0,7.6,7.6,0,0,1-2.52-1.5,7.216,7.216,0,0,1-1.72-2.391A7.69,7.69,0,0,1,101.16,18.2Zm7.94,3.591a3.519,3.519,0,0,0,1.39-.28,3.022,3.022,0,0,0,1.05-.76,3.508,3.508,0,0,0,.66-1.13,4.129,4.129,0,0,0,.24-1.43,4.3,4.3,0,0,0-.24-1.46,3.771,3.771,0,0,0-.66-1.16,2.788,2.788,0,0,0-1.05-.76,3.48,3.48,0,0,0-1.39-.27,3.533,3.533,0,0,0-1.4.28,3.108,3.108,0,0,0-1.05.77,3.314,3.314,0,0,0-.66,1.16,4.44,4.44,0,0,0-.22,1.44,4.378,4.378,0,0,0,.22,1.43,3.181,3.181,0,0,0,.66,1.13,3.221,3.221,0,0,0,1.05.76A3.271,3.271,0,0,0,109.1,21.79Z" transform="translate(0 0.003)" fill="#fff"/>
    <path id="패스_58" data-name="패스 58" d="M122.07,11.247l.38.98a6.984,6.984,0,0,1,2.11-1.1,8,8,0,0,1,2.44-.35,6.9,6.9,0,0,1,2.76.55,6.773,6.773,0,0,1,2.23,1.53,7.283,7.283,0,0,1,1.5,2.351,8.092,8.092,0,0,1,.55,3,7.79,7.79,0,0,1-.52,2.921,7.132,7.132,0,0,1-1.45,2.311,6.743,6.743,0,0,1-2.23,1.54,7.558,7.558,0,0,1-2.86.58,6.918,6.918,0,0,1-2.23-.32,6.706,6.706,0,0,1-1.99-1.02v9.293h-4.64V11.247Zm4.22,10.293a2.882,2.882,0,0,0,2.25-.93,3.468,3.468,0,0,0,.85-2.4,3.576,3.576,0,0,0-.85-2.461,3.211,3.211,0,0,0-4.5,0,3.52,3.52,0,0,0-.85,2.461,3.339,3.339,0,0,0,.85,2.4,2.911,2.911,0,0,0,2.25.93" transform="translate(0 0.003)" fill="#fff"/>
    <path id="패스_59" data-name="패스 59" d="M139.99,9.848h-4.64V5.837h4.64Zm0,15.244h-4.64V11.249h4.64Z" transform="translate(0 0.001)" fill="#fff"/>
    <path id="패스_60" data-name="패스 60" d="M153.05,11.247H157V25.091h-3.98l-.36-1.12a6.175,6.175,0,0,1-2.11,1.21,7.077,7.077,0,0,1-2.42.37,7.409,7.409,0,0,1-2.86-.58,6.743,6.743,0,0,1-2.23-1.54,6.967,6.967,0,0,1-1.45-2.311,8.111,8.111,0,0,1-.52-2.921,8.005,8.005,0,0,1,.55-3,7.062,7.062,0,0,1,1.5-2.351,6.927,6.927,0,0,1,2.23-1.53,6.835,6.835,0,0,1,2.76-.55,8.3,8.3,0,0,1,2.43.35,6.408,6.408,0,0,1,2.1,1.1l.4-.98ZM148.83,21.54a2.882,2.882,0,0,0,2.25-.93,3.469,3.469,0,0,0,.85-2.4,3.576,3.576,0,0,0-.85-2.461,3.211,3.211,0,0,0-4.5,0,3.52,3.52,0,0,0-.85,2.461,3.339,3.339,0,0,0,.85,2.4,2.911,2.911,0,0,0,2.25.93" transform="translate(0 0.003)" fill="#fff"/>
    <path id="패스_61" data-name="패스 61" d="M42.68,33.6a1.753,1.753,0,0,1-.93-.25,1.878,1.878,0,0,1-.68-.74,2.953,2.953,0,0,1,.01-2.4,1.766,1.766,0,0,1,.69-.76,1.832,1.832,0,0,1,.95-.26,1.406,1.406,0,0,1,.69.16,1.809,1.809,0,0,1,.5.39l-.43.54a1.619,1.619,0,0,0-.34-.26.8.8,0,0,0-.41-.1.947.947,0,0,0-.77.39,1.674,1.674,0,0,0-.31,1.08,1.833,1.833,0,0,0,.29,1.09.918.918,0,0,0,.77.4.939.939,0,0,0,.47-.12,1.359,1.359,0,0,0,.37-.31l.43.53a1.6,1.6,0,0,1-1.3.63Z" transform="translate(0 0.008)" fill="#fff"/>
    <path id="패스_62" data-name="패스 62" d="M49.1,33.6a1.652,1.652,0,0,1-1.32-.6,2.43,2.43,0,0,1-.51-1.63,2.385,2.385,0,0,1,.51-1.62,1.7,1.7,0,0,1,1.32-.58,1.665,1.665,0,0,1,1.32.58,2.357,2.357,0,0,1,.51,1.61,2.43,2.43,0,0,1-.51,1.63,1.652,1.652,0,0,1-1.32.6Zm0-.74a.821.821,0,0,0,.72-.41,2.374,2.374,0,0,0,0-2.161.824.824,0,0,0-.72-.39.835.835,0,0,0-.72.39,1.841,1.841,0,0,0-.27,1.07,1.956,1.956,0,0,0,.27,1.09.833.833,0,0,0,.72.41" transform="translate(0 0.008)" fill="#fff"/>
    <path id="패스_63" data-name="패스 63" d="M54.77,33.508V29.247h.83l1.18,2.271.41.92h.03a.594.594,0,0,0-.01-.11q-.03-.33-.06-.69c-.02-.24-.03-.48-.03-.69v-1.7h.77v4.261h-.83l-1.18-2.281-.41-.91h-.03c0,.1.02.2.03.31a9.687,9.687,0,0,1,.07,1.18v1.71h-.76Z" transform="translate(0 0.008)" fill="#fff"/>
    <path id="패스_64" data-name="패스 64" d="M62.76,33.509V29.958H61.61v-.71h3.12v.71H63.57v3.551Z" transform="translate(0 0.008)" fill="#fff"/>
    <path id="패스_65" data-name="패스 65" d="M68.44,33.509V29.247h2.5v.71H69.26v.98h1.43v.71H69.26v1.14h1.75v.71H68.45Z" transform="translate(0 0.008)" fill="#fff"/>
    <path id="패스_66" data-name="패스 66" d="M74.88,33.508V29.247h.83l1.18,2.271.41.92h.03a.594.594,0,0,0-.01-.11q-.03-.33-.06-.69c-.02-.24-.03-.48-.03-.69v-1.7H78v4.261h-.83l-1.18-2.281-.41-.91h-.03c0,.1.02.2.03.31a9.687,9.687,0,0,1,.07,1.18v1.71h-.76Z" transform="translate(0 0.008)" fill="#fff"/>
    <path id="패스_67" data-name="패스 67" d="M82.86,33.509V29.958H81.71v-.71h3.12v.71H83.67v3.551Z" transform="translate(0 0.008)" fill="#fff"/>
    <path id="패스_68" data-name="패스 68" d="M89.58,33.6a2.04,2.04,0,0,1-.8-.16,2.14,2.14,0,0,1-.69-.46l.47-.59a1.479,1.479,0,0,0,1.04.47.807.807,0,0,0,.48-.13.433.433,0,0,0,.17-.36.406.406,0,0,0-.16-.35,2.291,2.291,0,0,0-.42-.22c-.01,0-.02-.01-.04-.02l-.54-.24a1.845,1.845,0,0,1-.4-.24,1.292,1.292,0,0,1-.31-.38,1.189,1.189,0,0,1,.28-1.41,1.453,1.453,0,0,1,1.01-.36,1.809,1.809,0,0,1,.69.14,1.844,1.844,0,0,1,.59.41l-.41.53a1.609,1.609,0,0,0-.4-.26,1.159,1.159,0,0,0-.47-.09.707.707,0,0,0-.43.12.416.416,0,0,0,.02.67,1.913,1.913,0,0,0,.43.21l.04.02.54.24a1.5,1.5,0,0,1,.6.43,1.116,1.116,0,0,1,.22.73,1.215,1.215,0,0,1-.18.64,1.29,1.29,0,0,1-.51.47,1.672,1.672,0,0,1-.81.18h.01v.01Z" transform="translate(0 0.008)" fill="#fff"/>
    <path id="패스_69" data-name="패스 69" d="M99.15,33.509V29.247h.81V32.8h1.65v.71H99.15Z" transform="translate(0 0.008)" fill="#fff"/>
    <path id="패스_70" data-name="패스 70" d="M107.55,33.508l-.29-1.09h-1.32l-.29,1.09h-.83l1.31-4.261h.96l1.31,4.261h-.85Zm-1.43-1.761h.97l-.12-.47c-.08-.28-.15-.55-.22-.84-.04-.19-.09-.37-.14-.55h-.02c-.11.48-.22.94-.35,1.39Z" transform="translate(0 0.008)" fill="#fff"/>
    <path id="패스_71" data-name="패스 71" d="M111.94,33.508V29.247h1.35a2.476,2.476,0,0,1,.75.1,1.07,1.07,0,0,1,.53.33.948.948,0,0,1,.19.63,1.153,1.153,0,0,1-.14.55.814.814,0,0,1-.41.37v.03a.947.947,0,0,1,.55.33,1.028,1.028,0,0,1,.22.68,1.151,1.151,0,0,1-.21.71,1.261,1.261,0,0,1-.56.42,2.055,2.055,0,0,1-.81.14h-1.46Zm.81-2.531h.47a.884.884,0,0,0,.57-.15.51.51,0,0,0,.18-.41.472.472,0,0,0-.18-.41.937.937,0,0,0-.55-.12h-.48v1.08Zm0,1.871h.57a1.062,1.062,0,0,0,.64-.16.562.562,0,0,0,.22-.49.47.47,0,0,0-.22-.45,1.24,1.24,0,0,0-.64-.14h-.57Z" transform="translate(0 0.008)" fill="#fff"/>
    <path id="패스_72" data-name="패스 72" d="M11.99,15.959a4.446,4.446,0,0,1,3.1-3.241,4.446,4.446,0,0,1-3.1-3.241,4.446,4.446,0,0,1-3.1,3.241,4.446,4.446,0,0,1,3.1,3.241" transform="translate(0 0.003)" fill="#fff"/>
    <path id="패스_73" data-name="패스 73" d="M23.33,32.437a.727.727,0,0,0-.4-.2.952.952,0,0,0-.44.05.819.819,0,0,0-.36.27.86.86,0,0,0-.16.43,1.32,1.32,0,0,0,.36.98.727.727,0,0,0,.4.2.967.967,0,0,0,.44-.05.819.819,0,0,0,.36-.27.86.86,0,0,0,.16-.43,1.32,1.32,0,0,0-.36-.98m-.05,1.22a.47.47,0,0,1-.22.17.447.447,0,0,1-.28.03.47.47,0,0,1-.25-.15.961.961,0,0,1-.18-.32.823.823,0,0,1-.06-.37.518.518,0,0,1,.09-.28.47.47,0,0,1,.22-.17.447.447,0,0,1,.28-.03.51.51,0,0,1,.25.15.815.815,0,0,1,.18.32,1.047,1.047,0,0,1,.07.37.518.518,0,0,1-.09.28Z" transform="translate(0 0.009)" fill="#fff"/>
    <path id="패스_74" data-name="패스 74" d="M25.09,30.957l.64,1.12-.02.01-1.38-.66-.25.16.94,1.64.27-.18-.63-1.12.01-.01,1.38.67.25-.16-.93-1.64Z" transform="translate(0 0.009)" fill="#fff"/>
    <path id="패스_75" data-name="패스 75" d="M27.37,29.507l-.18-.22-1.11.97.17.23.43-.38,1,1.24.25-.22-.99-1.24Z" transform="translate(0 0.008)" fill="#fff"/>
    <path id="패스_76" data-name="패스 76" d="M29.52,28.067a1.039,1.039,0,0,0-.45-.26.73.73,0,0,0-.44.01.839.839,0,0,0-.37.26.784.784,0,0,0-.2.42.913.913,0,0,0,.05.46,1.05,1.05,0,0,0,.31.43,1.039,1.039,0,0,0,.45.26.73.73,0,0,0,.44-.01.839.839,0,0,0,.37-.26.864.864,0,0,0,.2-.42.806.806,0,0,0-.05-.46,1.122,1.122,0,0,0-.3-.43Zm-.07,1.1a.508.508,0,0,1-.23.16.45.45,0,0,1-.28-.01.835.835,0,0,1-.3-.19.928.928,0,0,1-.22-.29.615.615,0,0,1-.05-.29.476.476,0,0,1,.12-.26.508.508,0,0,1,.23-.16.536.536,0,0,1,.28.01,1,1,0,0,1,.3.19.928.928,0,0,1,.22.29.615.615,0,0,1,.05.29.476.476,0,0,1-.12.26" transform="translate(0 0.008)" fill="#fff"/>
    <path id="패스_77" data-name="패스 77" d="M30.75,26.747a.853.853,0,0,0,.12-.36.526.526,0,0,0-.06-.31.586.586,0,0,0-.23-.24.773.773,0,0,0-.31-.11.532.532,0,0,0-.3.07.729.729,0,0,0-.25.27l-.36.6,1.54,1.02.18-.29-.52-.35.19-.31Zm-.81-.48a.556.556,0,0,1,.14-.16.24.24,0,0,1,.16-.04.319.319,0,0,1,.17.06.4.4,0,0,1,.13.13.329.329,0,0,1,.04.17.438.438,0,0,1-.07.2l-.17.27-.56-.37.17-.27Z" transform="translate(0 0.007)" fill="#fff"/>
    <path id="패스_78" data-name="패스 78" d="M30.48,24.667l.13-.31,1.65.82-.14.31Z" transform="translate(0 0.007)" fill="#fff"/>
    <path id="패스_79" data-name="패스 79" d="M31.18,22.907l1.53,1.24.11-.35-.38-.3.22-.68h.48l.11-.35-1.94.04Zm.42-.09h.78l-.16.5-.62-.48v-.02Z" transform="translate(0 0.006)" fill="#fff"/>
    <path id="패스_80" data-name="패스 80" d="M33.47,15.361a17.508,17.508,0,0,0-2.36-7.2A16.437,16.437,0,0,0,13.84.307,17.318,17.318,0,0,0,.32,14.881a14.829,14.829,0,0,0-.32,3,14.373,14.373,0,0,0,.5,3.741,17.544,17.544,0,0,0,3.63,7.462,15.872,15.872,0,0,0,13.06,5.882A16.059,16.059,0,0,1,5.66,29.175a12.721,12.721,0,0,0,7.51,2.471c7.26,0,13.16-6.172,13.16-13.764S20.43,4.118,13.17,4.118a12.659,12.659,0,0,0-6.36,1.71A15.522,15.522,0,0,1,30.43,8.639a18.064,18.064,0,0,1,3.1,9.253,19.474,19.474,0,0,0-.05-2.531ZM22.1,10.38a7.657,7.657,0,0,0-4.92-1.17,8.549,8.549,0,0,1,5.99,3.541,8.437,8.437,0,0,1,1.15,2.331,12.334,12.334,0,0,1,.32,2.8,10.868,10.868,0,0,1-.07,1.28A8.118,8.118,0,0,1,22.45,23.4c-4.33,4.431-11.39,2.291-13.19-3.651-.06-.17-.11-.43-.16-.6-.12-.41-.15-.83-.23-1.25A9.421,9.421,0,0,0,9,20.493a8.547,8.547,0,0,0,12.14,6,11.17,11.17,0,0,1-8,3.411A11.759,11.759,0,0,1,1.66,17.912c0-6.612,5.18-12.023,11.5-12.023A11.256,11.256,0,0,1,22.1,10.38Z" transform="translate(0 0)" fill="#fff"/>
  </g>
</svg>
