<svg xmlns="http://www.w3.org/2000/svg" width="50" height="50" viewBox="0 0 50 50">
  <g id="vimeo" transform="translate(10295 4890)">
    <rect id="사각형_281" data-name="사각형 281" width="50" height="50" transform="translate(-10295 -4890)" fill="rgba(255,255,255,0)"/>
    <path id="vimeo-2" data-name="vimeo" d="M108.272,11.233C107.855,9.5,105.9,9,103.916,9.308a8.259,8.259,0,0,0-5.608,5.358c2.066-.162,3.15.149,2.951,2.451a8.525,8.525,0,0,1-1.1,3.032c-.62,1.168-1.783,3.459-3.307,1.808-1.373-1.488-1.267-4.33-1.58-6.224a26.717,26.717,0,0,0-.706-3.48,3.545,3.545,0,0,0-1.806-2.321,3.658,3.658,0,0,0-2.641.538,43.189,43.189,0,0,0-5.251,4.263c-.219.221-.09.408-.016.573.249.389.345.625.819.694,1.229.183,2.4-1.16,3.213.24a14.414,14.414,0,0,1,.971,2.7c.423,1.23.752,2.563,1.1,3.974.59,2.384,1.31,5.947,3.349,6.824,1.038.444,2.6-.151,3.389-.625a17.356,17.356,0,0,0,5.241-5.043,38.172,38.172,0,0,0,5.406-11.154,3.729,3.729,0,0,0-.066-1.687" transform="translate(-10366.744 -4884.224)" fill="#fff"/>
  </g>
</svg>
