<svg xmlns="http://www.w3.org/2000/svg" width="50" height="50" viewBox="0 0 50 50">
  <g id="youtube" transform="translate(10359 4890)">
    <rect id="youtube-2" data-name="youtube" width="50" height="50" transform="translate(-10359 -4890)" fill="rgba(255,255,255,0)"/>
    <path id="youtube-3" data-name="youtube" d="M20.3,10.64H5.706A5.675,5.675,0,0,0,0,16.282V23A5.675,5.675,0,0,0,5.706,28.64H20.3A5.675,5.675,0,0,0,26,23V16.282a5.674,5.674,0,0,0-5.7-5.642m-2.875,9.5-6.543,3.2c-.256.136-1.128-.047-1.128-.335V16.438c0-.292.879-.475,1.136-.331l6.263,3.37c.263.148.538.524.272.666" transform="translate(-10347 -4884.64)" fill="#fff"/>
  </g>
</svg>
